<?xml version="1.0" encoding="UTF-8" standalone="no"?>
<svg
   viewBox="0 0 512 512"
   width="100%"
   height="100%"
   version="1.1"
   id="svg49"
   xmlns="http://www.w3.org/2000/svg"
   xmlns:svg="http://www.w3.org/2000/svg">
  <defs
     id="defs17">
    <!-- Небосклон -->
    <linearGradient
       id="skyGrad"
       x1="0%"
       y1="0%"
       x2="0%"
       y2="100%">
      <stop
         offset="0%"
         stop-color="#FF7E5F"
         id="stop1" />
      <stop
         offset="40%"
         stop-color="#FEB47B"
         id="stop2" />
      <stop
         offset="80%"
         stop-color="#FFECCC"
         id="stop3" />
      <stop
         offset="100%"
         stop-color="#CBE6FF"
         id="stop4" />
    </linearGradient>
    <!-- Солнце -->
    <linearGradient
       id="sunGrad"
       x1="166"
       y1="110"
       x2="166"
       y2="290"
       gradientUnits="userSpaceOnUse"
       gradientTransform="matrix(0.50277064,0,0,0.50277064,215.03707,91.109972)">
      <stop
         offset="-99"
         stop-color="#F9D423"
         id="stop6" />
      <stop
         offset="1"
         stop-color="#FF4E50"
         id="stop5" />
    </linearGradient>
    <!-- Горы -->
    <linearGradient
       id="mountainGrad"
       x1="-19.920477"
       y1="451.79641"
       x2="-19.920477"
       y2="702.79442"
       gradientTransform="matrix(2.5099801,0,0,0.39840954,1.7549272,18.865467)"
       gradientUnits="userSpaceOnUse">
      <stop
         offset="0%"
         stop-color="#4A5568"
         stop-opacity="0.2"
         id="stop7" />
      <stop
         offset="100%"
         stop-color="#718096"
         stop-opacity="0.5"
         id="stop8" />
    </linearGradient>
    <!-- Вода на террасах -->
    <linearGradient
       id="waterGrad"
       x1="0%"
       y1="0%"
       x2="0%"
       y2="100%">
      <stop
         offset="0%"
         stop-color="#ABC7E3"
         id="stop9" />
      <stop
         offset="100%"
         stop-color="#769FCD"
         id="stop10" />
    </linearGradient>
    <!-- Ростки риса -->
    <linearGradient
       id="riceGrad"
       x1="0%"
       y1="0%"
       x2="0%"
       y2="100%">
      <stop
         offset="0%"
         stop-color="#A8E063"
         id="stop11" />
      <stop
         offset="100%"
         stop-color="#56AB2F"
         id="stop12" />
    </linearGradient>
    <!-- Главная буква J (Стебель) -->
    <linearGradient
       id="letterGrad"
       x1="0%"
       y1="0%"
       x2="100%"
       y2="100%">
      <stop
         offset="0%"
         stop-color="#D4FC79"
         id="stop13" />
      <stop
         offset="50%"
         stop-color="#96E6A1"
         id="stop14" />
      <stop
         offset="100%"
         stop-color="#388E3C"
         id="stop15" />
    </linearGradient>
    <!-- Тень от буквы -->
    <radialGradient
       id="shadowGrad"
       cx="50%"
       cy="50%"
       r="50%">
      <stop
         offset="0%"
         stop-color="#1B3A1E"
         stop-opacity="0.6"
         id="stop16" />
      <stop
         offset="100%"
         stop-color="#1B3A1E"
         stop-opacity="0"
         id="stop17" />
    </radialGradient>
  </defs>
  <!-- Базовый фон (Небо) -->
  <rect
     width="512"
     height="512"
     rx="0"
     fill="url(#skyGrad)"
     id="rect17"
     x="0"
     y="0" />
  <!-- Восходящее солнце -->
  <!-- Дальние горы силуэты -->
  <path
     d="m -48.245073,298.86547 170.000003,-100 160,80 140,-70 160,90 z"
     fill="url(#mountainGrad)"
     id="path17"
     style="fill:url(#mountainGrad)" />
  <!-- Рисовые террасы (Фон) -->
  <!-- Высший ярус -->
  <path
     d="M-10 270 Q130 250 260 280 T522 260 L522 522 L-10 522 Z"
     fill="#4CAF50"
     opacity="0.4"
     id="path18" />
  <path
     d="M-10 270 Q130 250 260 280 T522 260"
     fill="none"
     stroke="#2E7D32"
     stroke-width="4"
     id="path19" />
  <!-- Средний ярус (Вода) -->
  <path
     d="M-10 320 Q110 310 240 340 T522 310 L522 522 L-10 522 Z"
     fill="url(#waterGrad)"
     id="path20" />
  <!-- Отражение солнца в воде -->
  <ellipse
     cx="256"
     cy="350"
     rx="40"
     ry="8"
     fill="#FFF"
     opacity="0.3"
     filter="blur(2px)"
     id="ellipse20" />
  <!-- Гряда террасы -->
  <path
     d="M-10 320 Q110 310 240 340 T522 310"
     fill="none"
     stroke="#388E3C"
     stroke-width="6"
     id="path21" />
  <!-- Ближний ярус (Основной план с водой) -->
  <path
     d="M-10 390 Q140 370 270 410 T522 380 L522 522 L-10 522 Z"
     fill="url(#waterGrad)"
     id="path22" />
  <path
     d="M-10 390 Q140 370 270 410 T522 380"
     fill="none"
     stroke="#1B5E20"
     stroke-width="8"
     id="path23" />
  <!-- Мелкие ростки риса на заднем плане (Паттерн) -->
  <g
     fill="url(#riceGrad)"
     id="g29">
    <!-- Лево задний план -->
    <path
       d="M60 300 Q55 285 45 280 Q55 290 60 300 Q65 280 75 275 Q65 290 60 300 Z"
       id="path24" />
    <path
       d="M100 305 Q95 290 85 285 Q95 295 100 305 Q105 285 115 280 Q105 295 100 305 Z"
       id="path25" />
    <!-- Право задний план -->
    <path
       d="M400 295 Q395 280 385 275 Q395 285 400 295 Q405 275 415 270 Q405 285 400 295 Z"
       id="path26" />
    <path
       d="M450 300 Q445 285 435 280 Q445 290 450 300 Q455 280 465 275 Q455 290 450 300 Z"
       id="path27" />
    <!-- Средний план -->
    <path
       d="M140 360 Q135 340 120 330 Q135 348 140 360 Q145 335 160 325 Q145 348 140 360 Z"
       id="path28" />
    <path
       d="M360 355 Q355 335 340 325 Q355 343 360 355 Q365 330 380 320 Q365 343 360 355 Z"
       id="path29" />
  </g>
  <!-- ЦЕНТРАЛЬНАЯ КОМПОЗИЦИЯ: БУКВА J КАК РАСТЕНИЕ -->
  <!-- Тень под буквой J на воде -->
  <ellipse
     cx="230"
     cy="455"
     rx="55"
     ry="14"
     fill="url(#shadowGrad)"
     id="ellipse29" />
  <!-- Рисовые круги на воде вокруг буквы -->
  <ellipse
     cx="215"
     cy="455"
     rx="35"
     ry="8"
     fill="none"
     stroke="#FFF"
     stroke-width="2"
     opacity="0.5"
     id="ellipse30" />
  <ellipse
     cx="215"
     cy="455"
     rx="60"
     ry="14"
     fill="none"
     stroke="#FFF"
     stroke-width="1.5"
     opacity="0.3"
     id="ellipse31" />
  <!-- Буква J (Стилизованный стебель) -->
  <!-- Толщина варьируется для органического вида -->
  <path
     d="M260 140            C275 140, 275 380, 270 410            C265 440, 220 465, 170 450            C130 438, 125 400, 135 380            C145 360, 165 365, 160 385            C155 405, 170 422, 195 425            C225 428, 238 410, 242 380            C248 350, 245 140, 260 140 Z"
     fill="url(#letterGrad)"
     stroke="#1B5E20"
     stroke-width="3"
     id="path31" />
  <!-- Текстурные прожилки на букве J -->
  <path
     d="M255 160 C258 240, 255 320, 250 400 C245 420, 225 435, 190 430"
     fill="none"
     stroke="#A8E063"
     stroke-width="2"
     opacity="0.7"
     id="path32" />
  <!-- Листья, растущие прямо из буквы J -->
  <!-- Верхний левый лист -->
  <!-- Верхний правый лист -->
  <!-- Средний левый лист (изогнутый) -->
  <!-- Нижний правый лист -->
  <!-- Колосья риса (зерна) на кончике левого верхнего листа -->
  <!-- Колосья риса (зерна) на кончике правого листа -->
  <!-- Декоративные ростки на переднем плане (для глубины резкости) -->
  <g
     fill="url(#riceGrad)"
     stroke="#1B5E20"
     stroke-width="2"
     id="g46">
    <!-- Ближний левый куст -->
    <path
       d="M40 490 Q25 430 5 420 Q30 450 40 490 Z"
       id="path42" />
    <path
       d="M45 492 Q50 410 75 390 Q65 430 45 492 Z"
       id="path43" />
    <path
       d="M50 495 Q85 440 110 440 Q85 465 50 495 Z"
       id="path44" />
    <!-- Ближний правый куст -->
    <path
       d="M460 480 Q430 420 395 425 Q425 450 460 480 Z"
       id="path45" />
    <path
       d="M470 485 Q480 390 515 375 Q495 420 470 485 Z"
       id="path46" />
  </g>
  <!-- Блики и свет на воде (атмосфера) -->
  <g
     fill="#FFF"
     opacity="0.4"
     id="g49">
    <circle
       cx="290"
       cy="405"
       r="3"
       id="circle46" />
    <circle
       cx="110"
       cy="460"
       r="2"
       id="circle47" />
    <circle
       cx="380"
       cy="430"
       r="2.5"
       id="circle48" />
    <line
       x1="220"
       y1="330"
       x2="280"
       y2="330"
       stroke="#FFF"
       stroke-width="1"
       opacity="0.2"
       stroke-linecap="round"
       id="line48" />
    <line
       x1="160"
       y1="375"
       x2="200"
       y2="375"
       stroke="#FFF"
       stroke-width="1"
       opacity="0.2"
       stroke-linecap="round"
       id="line49" />
  </g>
  <text
     xml:space="preserve"
     style="font-size:163.139px;writing-mode:lr-tb;direction:ltr;fill:#ffffff;fill-opacity:1;stroke-width:13.5949"
     x="62.756287"
     y="134.5504"
     id="text1"
     transform="scale(1.1992391,0.83386207)"><tspan
       id="tspan1"
       x="62.756287"
       y="134.5504"
       style="font-style:normal;font-variant:normal;font-weight:normal;font-stretch:normal;font-family:Calibri;-inkscape-font-specification:Calibri;fill:#ffffff;fill-opacity:1;stroke-width:13.5949">RICE</tspan></text>
</svg>
